<svg xmlns="http://www.w3.org/2000/svg" width="512" height="512" viewBox="0 0 512 512">
  <rect width="512" height="512" rx="85" fill="#C0152A"/>
  <path d="M256 85c-22 0-43 22-64 54-43 64-85 128-85 202 0 82.3 67.2 149 149 149s149-66.7 149-149c0-74-42-138-85-202-21-32-42-54-64-54z" fill="white" opacity="0.95"/>
  <path d="M256 128c-11 0-21 14-32 32-21 37-42 75-42 117 0 40.9 33.2 74 74 74s74-33.1 74-74c0-42-21-80-42-117-11-18-21-32-32-32z" fill="#C0152A"/>
  <circle cx="256" cy="330" r="22" fill="#FFF" opacity="0.3"/>
</svg>
