<svg xmlns="http://www.w3.org/2000/svg" width="192" height="192" viewBox="0 0 192 192">
  <rect width="192" height="192" rx="32" fill="#C0152A"/>
  <path d="M96 32c-8 0-16 8-24 20-16 24-32 48-32 76 0 30.9 25.1 56 56 56s56-25.1 56-56c0-28-16-52-32-76-8-12-16-20-24-20z" fill="white" opacity="0.95"/>
  <path d="M96 48c-4 0-8 5-12 12-8 14-16 28-16 44 0 15.5 12.5 28 28 28s28-12.5 28-28c0-16-8-30-16-44-4-7-8-12-12-12z" fill="#C0152A"/>
  <circle cx="96" cy="124" r="8" fill="#FFF" opacity="0.3"/>
</svg>
