<svg xmlns="http://www.w3.org/2000/svg" width="180" height="180" viewBox="0 0 180 180">
  <rect width="180" height="180" rx="30" fill="#C0152A"/>
  <path d="M90 30c-7 0-15 7-22 18-15 22-30 44-30 70 0 28.7 23.3 52 52 52s52-23.3 52-52c0-26-15-48-30-70-7-11-15-18-22-18z" fill="white" opacity="0.95"/>
  <path d="M90 44c-4 0-8 5-11 11-7 13-14 26-14 40 0 13.8 11.2 25 25 25s25-11.2 25-25c0-14-7-27-14-40-3-6-7-11-11-11z" fill="#C0152A"/>
  <circle cx="90" cy="116" r="7" fill="#FFF" opacity="0.3"/>
</svg>
